<?xml version="1.0" encoding="UTF-8" standalone="no"?>
<!DOCTYPE svg PUBLIC "-//W3C//DTD SVG 1.1//EN"
 "http://www.w3.org/Graphics/SVG/1.1/DTD/svg11.dtd">
<!-- Generated by graphviz version 14.0.2 (0)
 -->
<!-- Title: OperationForwardShuffler Pages: 1 -->
<svg width="379pt" height="142pt"
 viewBox="0.00 0.00 379.00 142.00" xmlns="http://www.w3.org/2000/svg" xmlns:xlink="http://www.w3.org/1999/xlink">
<g id="graph0" class="graph" transform="scale(1 1) rotate(0) translate(4 138)">
<title>OperationForwardShuffler</title>
<!-- start -->
<g id="node1" class="node">
<title>start</title>
<ellipse fill="#95a5a6" stroke="black" cx="10.8" cy="-31" rx="10.8" ry="6.81"/>
<text xml:space="preserve" text-anchor="middle" x="10.8" y="-29.62" font-family="Helvetica,sans-Serif" font-size="5.00" fill="white">shuf</text>
</g>
<!-- step -->
<g id="node2" class="node">
<title>step</title>
<path fill="#7f8c8d" stroke="black" d="M50,-68.4C50,-68.4 39.2,-68.4 39.2,-68.4 37.4,-68.4 35.6,-66.6 35.6,-64.8 35.6,-64.8 35.6,-61.2 35.6,-61.2 35.6,-59.4 37.4,-57.6 39.2,-57.6 39.2,-57.6 50,-57.6 50,-57.6 51.8,-57.6 53.6,-59.4 53.6,-61.2 53.6,-61.2 53.6,-64.8 53.6,-64.8 53.6,-66.6 51.8,-68.4 50,-68.4"/>
<text xml:space="preserve" text-anchor="middle" x="44.6" y="-61.62" font-family="Helvetica,sans-Serif" font-size="5.00" fill="white">step</text>
</g>
<!-- start&#45;&gt;step -->
<g id="edge1" class="edge">
<title>start&#45;&gt;step</title>
<path fill="none" stroke="#7f8c8d" d="M17.34,-36.57C22.26,-41.53 29.54,-48.85 35.18,-54.53"/>
<polygon fill="#7f8c8d" stroke="#7f8c8d" points="34.2,-55.03 37.06,-56.42 35.69,-53.55 34.2,-55.03"/>
</g>
<!-- error -->
<g id="node18" class="node">
<title>error</title>
<ellipse fill="#95a5a6" stroke="black" cx="365.16" cy="-42" rx="5.4" ry="6.81"/>
<text xml:space="preserve" text-anchor="middle" x="365.16" y="-40.62" font-family="Helvetica,sans-Serif" font-size="5.00" fill="white">✗</text>
</g>
<!-- start&#45;&gt;error -->
<g id="edge2" class="edge">
<title>start&#45;&gt;error</title>
<path fill="none" stroke="#7f8c8d" stroke-dasharray="5,2" d="M17.83,-25.6C28.4,-16.72 51.3,0 73.98,0 73.98,0 73.98,0 310.98,0 332.3,0 350.09,-21.05 358.66,-33.35"/>
<polygon fill="#7f8c8d" stroke="#7f8c8d" points="357.63,-33.69 360.17,-35.59 359.37,-32.52 357.63,-33.69"/>
</g>
<!-- d1 -->
<g id="node3" class="node">
<title>d1</title>
<path fill="#bdc3c7" stroke="black" d="M72.52,-69.42C72.52,-69.42 70.06,-66.21 70.06,-66.21 68.83,-64.61 68.83,-61.4 70.06,-59.79 70.06,-59.79 72.52,-56.58 72.52,-56.58 73.75,-54.98 76.21,-54.98 77.44,-56.58 77.44,-56.58 79.9,-59.79 79.9,-59.79 81.13,-61.4 81.13,-64.61 79.9,-66.21 79.9,-66.21 77.44,-69.42 77.44,-69.42 76.21,-71.02 73.75,-71.02 72.52,-69.42"/>
<text xml:space="preserve" text-anchor="middle" x="74.98" y="-61.62" font-family="Helvetica,sans-Serif" font-size="5.00" fill="#2c3e50">&gt;</text>
</g>
<!-- step&#45;&gt;d1 -->
<g id="edge3" class="edge">
<title>step&#45;&gt;d1</title>
<path fill="none" stroke="#7f8c8d" d="M53.96,-63C56.71,-63 59.81,-63 62.73,-63"/>
<polygon fill="#7f8c8d" stroke="#7f8c8d" points="62.6,-64.05 65.6,-63 62.6,-61.95 62.6,-64.05"/>
</g>
<!-- d2 -->
<g id="node4" class="node">
<title>d2</title>
<path fill="#bdc3c7" stroke="black" d="M101.78,-70.42C101.78,-70.42 99.07,-67.21 99.07,-67.21 97.72,-65.61 97.72,-62.4 99.07,-60.79 99.07,-60.79 101.78,-57.58 101.78,-57.58 103.14,-55.98 105.85,-55.98 107.2,-57.58 107.2,-57.58 109.91,-60.79 109.91,-60.79 111.27,-62.4 111.27,-65.61 109.91,-67.21 109.91,-67.21 107.2,-70.42 107.2,-70.42 105.85,-72.02 103.14,-72.02 101.78,-70.42"/>
<text xml:space="preserve" text-anchor="middle" x="104.49" y="-62.62" font-family="Helvetica,sans-Serif" font-size="5.00" fill="#2c3e50">!?</text>
</g>
<!-- d1&#45;&gt;d2 -->
<g id="edge6" class="edge">
<title>d1&#45;&gt;d2</title>
<path fill="none" stroke="#7f8c8d" d="M82.64,-63.24C85.44,-63.34 88.78,-63.47 91.95,-63.58"/>
<polygon fill="#7f8c8d" stroke="#7f8c8d" points="91.57,-64.62 94.61,-63.68 91.65,-62.52 91.57,-64.62"/>
</g>
<!-- shrink1 -->
<g id="node9" class="node">
<title>shrink1</title>
<path fill="#34495e" stroke="black" d="M108.09,-48.4C108.09,-48.4 100.89,-48.4 100.89,-48.4 99.09,-48.4 97.29,-46.6 97.29,-44.8 97.29,-44.8 97.29,-41.2 97.29,-41.2 97.29,-39.4 99.09,-37.6 100.89,-37.6 100.89,-37.6 108.09,-37.6 108.09,-37.6 109.89,-37.6 111.69,-39.4 111.69,-41.2 111.69,-41.2 111.69,-44.8 111.69,-44.8 111.69,-46.6 109.89,-48.4 108.09,-48.4"/>
<text xml:space="preserve" text-anchor="middle" x="104.49" y="-41.62" font-family="Helvetica,sans-Serif" font-size="5.00" fill="white">↓</text>
</g>
<!-- d1&#45;&gt;shrink1 -->
<g id="edge4" class="edge">
<title>d1&#45;&gt;shrink1</title>
<path fill="none" stroke="#7f8c8d" d="M80.28,-59.88C83.77,-57.33 88.85,-53.65 93.36,-50.37"/>
<polygon fill="#7f8c8d" stroke="#7f8c8d" points="93.94,-51.24 95.75,-48.63 92.7,-49.54 93.94,-51.24"/>
</g>
<!-- d3 -->
<g id="node5" class="node">
<title>d3</title>
<path fill="#bdc3c7" stroke="black" d="M133.04,-70.42C133.04,-70.42 129.83,-67.21 129.83,-67.21 128.23,-65.61 128.23,-62.4 129.83,-60.79 129.83,-60.79 133.04,-57.58 133.04,-57.58 134.65,-55.98 137.86,-55.98 139.46,-57.58 139.46,-57.58 142.67,-60.79 142.67,-60.79 144.28,-62.4 144.28,-65.61 142.67,-67.21 142.67,-67.21 139.46,-70.42 139.46,-70.42 137.86,-72.02 134.65,-72.02 133.04,-70.42"/>
<text xml:space="preserve" text-anchor="middle" x="136.25" y="-62.62" font-family="Helvetica,sans-Serif" font-size="5.00" fill="#2c3e50">&lt;t</text>
</g>
<!-- d2&#45;&gt;d3 -->
<g id="edge9" class="edge">
<title>d2&#45;&gt;d3</title>
<path fill="none" stroke="#7f8c8d" d="M113,-64C115.75,-64 118.94,-64 122.04,-64"/>
<polygon fill="#7f8c8d" stroke="#7f8c8d" points="121.64,-65.05 124.64,-64 121.64,-62.95 121.64,-65.05"/>
</g>
<!-- fix_reach -->
<g id="node10" class="node">
<title>fix_reach</title>
<path fill="#34495e" stroke="black" d="M139.85,-41.4C139.85,-41.4 132.65,-41.4 132.65,-41.4 130.85,-41.4 129.05,-39.6 129.05,-37.8 129.05,-37.8 129.05,-34.2 129.05,-34.2 129.05,-32.4 130.85,-30.6 132.65,-30.6 132.65,-30.6 139.85,-30.6 139.85,-30.6 141.65,-30.6 143.45,-32.4 143.45,-34.2 143.45,-34.2 143.45,-37.8 143.45,-37.8 143.45,-39.6 141.65,-41.4 139.85,-41.4"/>
<text xml:space="preserve" text-anchor="middle" x="136.25" y="-34.62" font-family="Helvetica,sans-Serif" font-size="5.00" fill="white">→</text>
</g>
<!-- d2&#45;&gt;fix_reach -->
<g id="edge7" class="edge">
<title>d2&#45;&gt;fix_reach</title>
<path fill="none" stroke="#7f8c8d" d="M109.63,-60.11C113.86,-56.12 120.58,-49.81 126.07,-44.64"/>
<polygon fill="#7f8c8d" stroke="#7f8c8d" points="126.73,-45.46 128.2,-42.64 125.29,-43.93 126.73,-45.46"/>
</g>
<!-- d4 -->
<g id="node6" class="node">
<title>d4</title>
<path fill="#bdc3c7" stroke="black" d="M164.8,-70.42C164.8,-70.42 162.34,-67.21 162.34,-67.21 161.11,-65.61 161.11,-62.4 162.34,-60.79 162.34,-60.79 164.8,-57.58 164.8,-57.58 166.03,-55.98 168.49,-55.98 169.72,-57.58 169.72,-57.58 172.18,-60.79 172.18,-60.79 173.41,-62.4 173.41,-65.61 172.18,-67.21 172.18,-67.21 169.72,-70.42 169.72,-70.42 168.49,-72.02 166.03,-72.02 164.8,-70.42"/>
<text xml:space="preserve" text-anchor="middle" x="167.26" y="-62.62" font-family="Helvetica,sans-Serif" font-size="5.00" fill="#2c3e50">∅</text>
</g>
<!-- d3&#45;&gt;d4 -->
<g id="edge12" class="edge">
<title>d3&#45;&gt;d4</title>
<path fill="none" stroke="#7f8c8d" d="M146.43,-64C149.22,-64 152.31,-64 155.21,-64"/>
<polygon fill="#7f8c8d" stroke="#7f8c8d" points="155.02,-65.05 158.02,-64 155.02,-62.95 155.02,-65.05"/>
</g>
<!-- dup_fill -->
<g id="node11" class="node">
<title>dup_fill</title>
<path fill="#34495e" stroke="black" d="M170.86,-34.4C170.86,-34.4 163.66,-34.4 163.66,-34.4 161.86,-34.4 160.06,-32.6 160.06,-30.8 160.06,-30.8 160.06,-27.2 160.06,-27.2 160.06,-25.4 161.86,-23.6 163.66,-23.6 163.66,-23.6 170.86,-23.6 170.86,-23.6 172.66,-23.6 174.46,-25.4 174.46,-27.2 174.46,-27.2 174.46,-30.8 174.46,-30.8 174.46,-32.6 172.66,-34.4 170.86,-34.4"/>
<text xml:space="preserve" text-anchor="middle" x="167.26" y="-27.62" font-family="Helvetica,sans-Serif" font-size="5.00" fill="white">⇈</text>
</g>
<!-- d3&#45;&gt;dup_fill -->
<g id="edge10" class="edge">
<title>d3&#45;&gt;dup_fill</title>
<path fill="none" stroke="#7f8c8d" d="M141.28,-59.13C145.89,-53.58 153.5,-44.39 159.11,-37.62"/>
<polygon fill="#7f8c8d" stroke="#7f8c8d" points="159.62,-38.66 160.72,-35.68 158,-37.32 159.62,-38.66"/>
</g>
<!-- try_fix -->
<g id="node12" class="node">
<title>try_fix</title>
<path fill="#34495e" stroke="black" d="M199.44,-103.4C199.44,-103.4 192.24,-103.4 192.24,-103.4 190.44,-103.4 188.64,-101.6 188.64,-99.8 188.64,-99.8 188.64,-96.2 188.64,-96.2 188.64,-94.4 190.44,-92.6 192.24,-92.6 192.24,-92.6 199.44,-92.6 199.44,-92.6 201.24,-92.6 203.04,-94.4 203.04,-96.2 203.04,-96.2 203.04,-99.8 203.04,-99.8 203.04,-101.6 201.24,-103.4 199.44,-103.4"/>
<text xml:space="preserve" text-anchor="middle" x="195.84" y="-96.62" font-family="Helvetica,sans-Serif" font-size="5.00" fill="white">→</text>
</g>
<!-- d4&#45;&gt;try_fix -->
<g id="edge14" class="edge">
<title>d4&#45;&gt;try_fix</title>
<path fill="none" stroke="#7f8c8d" d="M171.73,-68.44C175.82,-73.67 182.7,-82.47 187.89,-89.11"/>
<polygon fill="#7f8c8d" stroke="#7f8c8d" points="186.97,-89.63 189.64,-91.35 188.62,-88.34 186.97,-89.63"/>
</g>
<!-- done -->
<g id="node17" class="node">
<title>done</title>
<ellipse fill="#27ae60" stroke="black" cx="338.56" cy="-65" rx="5.4" ry="6.81"/>
<text xml:space="preserve" text-anchor="middle" x="338.56" y="-63.62" font-family="Helvetica,sans-Serif" font-size="5.00" fill="white">✓</text>
</g>
<!-- d4&#45;&gt;done -->
<g id="edge13" class="edge">
<title>d4&#45;&gt;done</title>
<path fill="none" stroke="#7f8c8d" d="M175.05,-64C185.46,-64 205.99,-64 223.42,-64 223.42,-64 223.42,-64 282.4,-64 298.51,-64 317.27,-64.43 328.24,-64.73"/>
<polygon fill="#7f8c8d" stroke="#7f8c8d" points="328.15,-65.78 331.18,-64.81 328.21,-63.68 328.15,-65.78"/>
</g>
<!-- d5 -->
<g id="node7" class="node">
<title>d5</title>
<path fill="#bdc3c7" stroke="black" d="M221.96,-106.42C221.96,-106.42 219.5,-103.21 219.5,-103.21 218.27,-101.61 218.27,-98.39 219.5,-96.79 219.5,-96.79 221.96,-93.58 221.96,-93.58 223.19,-91.98 225.65,-91.98 226.88,-93.58 226.88,-93.58 229.34,-96.79 229.34,-96.79 230.57,-98.39 230.57,-101.61 229.34,-103.21 229.34,-103.21 226.88,-106.42 226.88,-106.42 225.65,-108.02 223.19,-108.02 221.96,-106.42"/>
<text xml:space="preserve" text-anchor="middle" x="224.42" y="-98.62" font-family="Helvetica,sans-Serif" font-size="5.00" fill="#2c3e50">&lt;</text>
</g>
<!-- dup_args -->
<g id="node13" class="node">
<title>dup_args</title>
<path fill="#34495e" stroke="black" d="M256.6,-122.4C256.6,-122.4 249.4,-122.4 249.4,-122.4 247.6,-122.4 245.8,-120.6 245.8,-118.8 245.8,-118.8 245.8,-115.2 245.8,-115.2 245.8,-113.4 247.6,-111.6 249.4,-111.6 249.4,-111.6 256.6,-111.6 256.6,-111.6 258.4,-111.6 260.2,-113.4 260.2,-115.2 260.2,-115.2 260.2,-118.8 260.2,-118.8 260.2,-120.6 258.4,-122.4 256.6,-122.4"/>
<text xml:space="preserve" text-anchor="middle" x="253" y="-115.62" font-family="Helvetica,sans-Serif" font-size="5.00" fill="white">⇈</text>
</g>
<!-- d5&#45;&gt;dup_args -->
<g id="edge17" class="edge">
<title>d5&#45;&gt;dup_args</title>
<path fill="none" stroke="#7f8c8d" d="M230.05,-102.96C233.4,-105.1 238.04,-108.07 242.2,-110.73"/>
<polygon fill="#7f8c8d" stroke="#7f8c8d" points="241.16,-111.32 244.26,-112.05 242.3,-109.55 241.16,-111.32"/>
</g>
<!-- assert_eq -->
<g id="node14" class="node">
<title>assert_eq</title>
<path fill="#7f8c8d" stroke="black" d="M254.8,-103.4C254.8,-103.4 251.2,-103.4 251.2,-103.4 249.4,-103.4 247.6,-101.6 247.6,-99.8 247.6,-99.8 247.6,-96.2 247.6,-96.2 247.6,-94.4 249.4,-92.6 251.2,-92.6 251.2,-92.6 254.8,-92.6 254.8,-92.6 256.6,-92.6 258.4,-94.4 258.4,-96.2 258.4,-96.2 258.4,-99.8 258.4,-99.8 258.4,-101.6 256.6,-103.4 254.8,-103.4"/>
<text xml:space="preserve" text-anchor="middle" x="253" y="-96.62" font-family="Helvetica,sans-Serif" font-size="5.00" fill="white">=</text>
</g>
<!-- d5&#45;&gt;assert_eq -->
<g id="edge19" class="edge">
<title>d5&#45;&gt;assert_eq</title>
<path fill="none" stroke="#7f8c8d" d="M231.85,-99.52C235.3,-99.26 239.59,-98.93 243.33,-98.65"/>
<polygon fill="#7f8c8d" stroke="#7f8c8d" points="242.95,-99.73 245.86,-98.46 242.79,-97.64 242.95,-99.73"/>
</g>
<!-- d6 -->
<g id="node8" class="node">
<title>d6</title>
<path fill="#bdc3c7" stroke="black" d="M307.52,-90.42C307.52,-90.42 305.06,-87.21 305.06,-87.21 303.83,-85.61 303.83,-82.39 305.06,-80.79 305.06,-80.79 307.52,-77.58 307.52,-77.58 308.75,-75.98 311.21,-75.98 312.44,-77.58 312.44,-77.58 314.9,-80.79 314.9,-80.79 316.13,-82.39 316.13,-85.61 314.9,-87.21 314.9,-87.21 312.44,-90.42 312.44,-90.42 311.21,-92.02 308.75,-92.02 307.52,-90.42"/>
<text xml:space="preserve" text-anchor="middle" x="309.98" y="-82.62" font-family="Helvetica,sans-Serif" font-size="5.00" fill="#2c3e50">✓</text>
</g>
<!-- final_shrink -->
<g id="node16" class="node">
<title>final_shrink</title>
<path fill="#34495e" stroke="black" d="M342.16,-89.4C342.16,-89.4 334.96,-89.4 334.96,-89.4 333.16,-89.4 331.36,-87.6 331.36,-85.8 331.36,-85.8 331.36,-82.2 331.36,-82.2 331.36,-80.4 333.16,-78.6 334.96,-78.6 334.96,-78.6 342.16,-78.6 342.16,-78.6 343.96,-78.6 345.76,-80.4 345.76,-82.2 345.76,-82.2 345.76,-85.8 345.76,-85.8 345.76,-87.6 343.96,-89.4 342.16,-89.4"/>
<text xml:space="preserve" text-anchor="middle" x="338.56" y="-82.62" font-family="Helvetica,sans-Serif" font-size="5.00" fill="white">↓</text>
</g>
<!-- d6&#45;&gt;final_shrink -->
<g id="edge24" class="edge">
<title>d6&#45;&gt;final_shrink</title>
<path fill="none" stroke="#7f8c8d" d="M317.96,-84C320.63,-84 323.73,-84 326.68,-84"/>
<polygon fill="#7f8c8d" stroke="#7f8c8d" points="326.57,-85.05 329.57,-84 326.57,-82.95 326.57,-85.05"/>
</g>
<!-- d6&#45;&gt;done -->
<g id="edge23" class="edge">
<title>d6&#45;&gt;done</title>
<path fill="none" stroke="#7f8c8d" d="M315.13,-81.03C319.14,-78.17 325.28,-73.78 330.13,-70.31"/>
<polygon fill="#7f8c8d" stroke="#7f8c8d" points="330.46,-71.36 332.29,-68.77 329.24,-69.66 330.46,-71.36"/>
</g>
<!-- shrink1&#45;&gt;step -->
<g id="edge5" class="edge">
<title>shrink1&#45;&gt;step</title>
<path fill="none" stroke="#7f8c8d" stroke-dasharray="5,2" d="M96.98,-43.89C89.67,-45.02 77.52,-47.27 67.6,-51 64.2,-52.28 60.69,-53.99 57.49,-55.73"/>
<polygon fill="#7f8c8d" stroke="#7f8c8d" points="57.32,-54.62 55.22,-57.01 58.35,-56.45 57.32,-54.62"/>
</g>
<!-- fix_reach&#45;&gt;step -->
<g id="edge8" class="edge">
<title>fix_reach&#45;&gt;step</title>
<path fill="none" stroke="#7f8c8d" stroke-dasharray="5,2" d="M128.59,-35.33C120.8,-34.7 107.54,-34.11 96.36,-36 83.02,-38.25 79.5,-39.56 67.6,-46 63.27,-48.34 58.9,-51.52 55.21,-54.49"/>
<polygon fill="#7f8c8d" stroke="#7f8c8d" points="54.56,-53.66 52.93,-56.39 55.91,-55.27 54.56,-53.66"/>
</g>
<!-- dup_fill&#45;&gt;step -->
<g id="edge11" class="edge">
<title>dup_fill&#45;&gt;step</title>
<path fill="none" stroke="#7f8c8d" stroke-dasharray="5,2" d="M159.98,-27.92C143.57,-25.43 98.55,-20.75 67.6,-38 60.87,-41.75 55.19,-48.37 51.28,-53.86"/>
<polygon fill="#7f8c8d" stroke="#7f8c8d" points="50.53,-53.09 49.72,-56.17 52.27,-54.27 50.53,-53.09"/>
</g>
<!-- try_fix&#45;&gt;step -->
<g id="edge15" class="edge">
<title>try_fix&#45;&gt;step</title>
<path fill="none" stroke="#7f8c8d" stroke-dasharray="5,2" d="M188.45,-98C177.82,-98 155.85,-98 137.25,-98 103.49,-98 103.49,-98 103.49,-98 87.05,-98 81.56,-97.7 67.6,-89 60.91,-84.83 55.23,-77.96 51.31,-72.33"/>
<polygon fill="#7f8c8d" stroke="#7f8c8d" points="52.26,-71.86 49.73,-69.94 50.51,-73.02 52.26,-71.86"/>
</g>
<!-- try_fix&#45;&gt;d5 -->
<g id="edge16" class="edge">
<title>try_fix&#45;&gt;d5</title>
<path fill="none" stroke="#7f8c8d" d="M203.27,-98.48C206.15,-98.7 209.61,-98.96 212.85,-99.2"/>
<polygon fill="#7f8c8d" stroke="#7f8c8d" points="212.47,-100.23 215.54,-99.41 212.62,-98.13 212.47,-100.23"/>
</g>
<!-- dup_args&#45;&gt;step -->
<g id="edge18" class="edge">
<title>dup_args&#45;&gt;step</title>
<path fill="none" stroke="#7f8c8d" stroke-dasharray="5,2" d="M245.55,-117.58C235.26,-118.45 214.49,-120 196.84,-120 103.49,-120 103.49,-120 103.49,-120 76.7,-120 57.8,-88.63 49.83,-72.44"/>
<polygon fill="#7f8c8d" stroke="#7f8c8d" points="50.92,-72.3 48.69,-70.04 49.03,-73.2 50.92,-72.3"/>
</g>
<!-- try_final -->
<g id="node15" class="node">
<title>try_final</title>
<path fill="#34495e" stroke="black" d="M285,-89.4C285,-89.4 277.8,-89.4 277.8,-89.4 276,-89.4 274.2,-87.6 274.2,-85.8 274.2,-85.8 274.2,-82.2 274.2,-82.2 274.2,-80.4 276,-78.6 277.8,-78.6 277.8,-78.6 285,-78.6 285,-78.6 286.8,-78.6 288.6,-80.4 288.6,-82.2 288.6,-82.2 288.6,-85.8 288.6,-85.8 288.6,-87.6 286.8,-89.4 285,-89.4"/>
<text xml:space="preserve" text-anchor="middle" x="281.4" y="-82.62" font-family="Helvetica,sans-Serif" font-size="5.00" fill="white">⇄</text>
</g>
<!-- assert_eq&#45;&gt;try_final -->
<g id="edge20" class="edge">
<title>assert_eq&#45;&gt;try_final</title>
<path fill="none" stroke="#7f8c8d" d="M258.6,-95.56C261.79,-93.87 266.17,-91.55 270.16,-89.43"/>
<polygon fill="#7f8c8d" stroke="#7f8c8d" points="270.48,-90.45 272.64,-88.12 269.5,-88.59 270.48,-90.45"/>
</g>
<!-- try_final&#45;&gt;step -->
<g id="edge21" class="edge">
<title>try_final&#45;&gt;step</title>
<path fill="none" stroke="#7f8c8d" stroke-dasharray="5,2" d="M273.84,-84C253.53,-84 189.94,-84 137.25,-84 103.49,-84 103.49,-84 103.49,-84 87.15,-84 82.8,-82.01 67.6,-76 64.16,-74.64 60.63,-72.79 57.43,-70.91"/>
<polygon fill="#7f8c8d" stroke="#7f8c8d" points="58.25,-70.18 55.14,-69.5 57.15,-71.97 58.25,-70.18"/>
</g>
<!-- try_final&#45;&gt;d6 -->
<g id="edge22" class="edge">
<title>try_final&#45;&gt;d6</title>
<path fill="none" stroke="#7f8c8d" d="M288.83,-84C291.62,-84 294.97,-84 298.12,-84"/>
<polygon fill="#7f8c8d" stroke="#7f8c8d" points="297.72,-85.05 300.72,-84 297.72,-82.95 297.72,-85.05"/>
</g>
<!-- final_shrink&#45;&gt;step -->
<g id="edge25" class="edge">
<title>final_shrink&#45;&gt;step</title>
<path fill="none" stroke="#7f8c8d" stroke-dasharray="5,2" d="M334.72,-89.74C327.76,-102.87 308.51,-134 282.4,-134 103.49,-134 103.49,-134 103.49,-134 72.14,-134 54.75,-91.92 48.41,-72.55"/>
<polygon fill="#7f8c8d" stroke="#7f8c8d" points="49.51,-72.56 47.61,-70.02 47.51,-73.19 49.51,-72.56"/>
</g>
<!-- final_shrink&#45;&gt;error -->
<g id="edge26" class="edge">
<title>final_shrink&#45;&gt;error</title>
<path fill="none" stroke="#7f8c8d" stroke-dasharray="5,2" d="M343.71,-78.15C344.41,-77.11 345.12,-76.03 345.76,-75 350.69,-67.06 355.83,-57.74 359.42,-51.04"/>
<polygon fill="#7f8c8d" stroke="#7f8c8d" points="360.25,-51.71 360.73,-48.57 358.4,-50.73 360.25,-51.71"/>
</g>
</g>
</svg>
